<svg xmlns="http://www.w3.org/2000/svg" width="111" height="17" viewBox="0 0 111 17" fill="none">
<path d="M2.68798 0.200195H8.44798V3.0802H3.83998L3.76798 3.2242L7.60798 10.2322C8.39198 11.6402 8.78398 12.7122 8.78398 13.4482C8.78398 15.0642 8.24798 16.2482 7.17598 17.0002H0.815976V14.2162H5.78398L5.85598 14.0722L1.53598 6.3202C0.911976 5.2002 0.599976 4.2882 0.599976 3.5842C0.599976 1.9202 1.29598 0.792195 2.68798 0.200195Z" fill="white"/>
<path d="M17.9291 0.200195C19.0491 1.1122 19.8811 2.3362 20.4251 3.8722C20.9691 5.4082 21.2411 6.9922 21.2411 8.6242C21.2411 10.2402 20.9771 11.7762 20.4491 13.2322C19.9211 14.6882 19.0811 15.9442 17.9291 17.0002H12.9851C11.8331 15.9442 10.9931 14.6882 10.4651 13.2322C9.9371 11.7762 9.6731 10.2402 9.6731 8.6242C9.6731 6.9922 9.9451 5.4082 10.4891 3.8722C11.0331 2.3362 11.8651 1.1122 12.9851 0.200195H17.9291ZM14.5931 14.2162H16.3211C16.7211 13.7522 17.0571 13.0002 17.3291 11.9602C17.6171 10.9042 17.7611 9.7922 17.7611 8.6242C17.7611 7.4562 17.6251 6.3602 17.3531 5.3362C17.0811 4.2962 16.7451 3.5442 16.3451 3.0802H14.5931C14.1931 3.5442 13.8491 4.2962 13.5611 5.3362C13.2891 6.3602 13.1531 7.4562 13.1531 8.6242C13.1531 9.7922 13.2891 10.9042 13.5611 11.9602C13.8491 13.0002 14.1931 13.7522 14.5931 14.2162Z" fill="white"/>
<path d="M27.2649 14.2162H29.2809C29.6329 13.8322 29.8809 13.4482 30.0249 13.0642C30.1849 12.6642 30.2649 12.0802 30.2649 11.3122V0.200195H33.5529V10.1122C33.5529 10.9282 33.5289 11.5682 33.4809 12.0322C33.4489 12.4802 33.3529 13.0322 33.1929 13.6882C32.9209 14.8562 32.1689 15.9602 30.9369 17.0002H25.6089C24.3769 15.9922 23.6249 14.8882 23.3529 13.6882C23.1129 12.7122 22.9929 11.5202 22.9929 10.1122V0.200195H26.2809V11.3122C26.2809 12.0802 26.3529 12.6642 26.4969 13.0642C26.6569 13.4482 26.9129 13.8322 27.2649 14.2162Z" fill="white"/>
<path d="M43.2337 17.0002L38.7457 7.7122L38.6257 7.7602L38.7697 10.5922V17.0002H35.7457V0.200195H38.1697L42.5857 9.8482L42.7057 9.8002L42.4417 6.8482V0.200195H45.4657V17.0002H43.2337Z" fill="white"/>
<path d="M51.0332 14.2162H53.1932C53.6412 13.6562 53.9932 12.8402 54.2492 11.7682C54.5212 10.6962 54.6572 9.6322 54.6572 8.5762C54.6572 6.0642 54.1852 4.2322 53.2412 3.0802H51.0332V14.2162ZM47.7692 17.0002V0.200195H54.7292C57.0012 2.2162 58.1372 4.9522 58.1372 8.4082C58.1372 11.8482 57.0732 14.7122 54.9452 17.0002H47.7692Z" fill="white"/>
<path d="M60.0035 17.0002V0.200195H66.8435C67.6275 0.488195 68.3235 0.992196 68.9315 1.7122C69.5395 2.4322 69.8435 3.3042 69.8435 4.3282C69.8435 6.1362 69.2515 7.4002 68.0675 8.1202V8.2162C69.5395 9.0322 70.2755 10.3122 70.2755 12.0562C70.2755 14.0562 69.2595 15.7042 67.2275 17.0002H60.0035ZM63.2675 7.1362H65.6435C66.3475 6.7042 66.6995 6.0482 66.6995 5.1682C66.6995 4.2882 66.3715 3.5922 65.7155 3.0802H63.2675V7.1362ZM63.2675 14.2162H65.7395C66.0275 14.0082 66.2835 13.6802 66.5075 13.2322C66.7475 12.7842 66.8675 12.3362 66.8675 11.8882C66.8675 11.4402 66.7715 11.0322 66.5795 10.6642C66.3875 10.2962 66.1475 10.0242 65.8595 9.8482H63.2675V14.2162Z" fill="white"/>
<path d="M79.851 0.200195C80.971 1.1122 81.803 2.3362 82.347 3.8722C82.891 5.4082 83.163 6.9922 83.163 8.6242C83.163 10.2402 82.899 11.7762 82.371 13.2322C81.843 14.6882 81.003 15.9442 79.851 17.0002H74.907C73.755 15.9442 72.915 14.6882 72.387 13.2322C71.859 11.7762 71.595 10.2402 71.595 8.6242C71.595 6.9922 71.867 5.4082 72.411 3.8722C72.955 2.3362 73.787 1.1122 74.907 0.200195H79.851ZM76.515 14.2162H78.243C78.643 13.7522 78.979 13.0002 79.251 11.9602C79.539 10.9042 79.683 9.7922 79.683 8.6242C79.683 7.4562 79.547 6.3602 79.275 5.3362C79.003 4.2962 78.667 3.5442 78.267 3.0802H76.515C76.115 3.5442 75.771 4.2962 75.483 5.3362C75.211 6.3602 75.075 7.4562 75.075 8.6242C75.075 9.7922 75.211 10.9042 75.483 11.9602C75.771 13.0002 76.115 13.7522 76.515 14.2162Z" fill="white"/>
<path d="M92.8588 0.200195C93.9788 1.1122 94.8108 2.3362 95.3548 3.8722C95.8988 5.4082 96.1708 6.9922 96.1708 8.6242C96.1708 10.2402 95.9068 11.7762 95.3788 13.2322C94.8508 14.6882 94.0108 15.9442 92.8588 17.0002H87.9148C86.7628 15.9442 85.9228 14.6882 85.3948 13.2322C84.8668 11.7762 84.6028 10.2402 84.6028 8.6242C84.6028 6.9922 84.8748 5.4082 85.4188 3.8722C85.9628 2.3362 86.7948 1.1122 87.9148 0.200195H92.8588ZM89.5228 14.2162H91.2508C91.6508 13.7522 91.9868 13.0002 92.2588 11.9602C92.5468 10.9042 92.6908 9.7922 92.6908 8.6242C92.6908 7.4562 92.5548 6.3602 92.2828 5.3362C92.0108 4.2962 91.6748 3.5442 91.2748 3.0802H89.5228C89.1228 3.5442 88.7788 4.2962 88.4908 5.3362C88.2188 6.3602 88.0828 7.4562 88.0828 8.6242C88.0828 9.7922 88.2188 10.9042 88.4908 11.9602C88.7788 13.0002 89.1228 13.7522 89.5228 14.2162Z" fill="white"/>
<path d="M103.928 9.3202L105.2 4.0642L106.232 0.200195H109.232L110.312 17.0002H107.168L106.712 7.8322H106.592L104.864 14.6002H102.896L101.168 7.8322H101.048L100.592 17.0002H97.4482L98.5282 0.200195H101.528L102.56 4.0642L103.832 9.3202H103.928Z" fill="white"/>
</svg>